<svg viewBox="0 0 300 316" fill="none" xmlns="http://www.w3.org/2000/svg">
<path d="M186 138.5C186 158.658 169.658 175 149.5 175C129.342 175 113 158.658 113 138.5C113 118.342 129.342 102 149.5 102C169.658 102 186 118.342 186 138.5Z" fill="#AA1CD3"/>
<path fill-rule="evenodd" clip-rule="evenodd" d="M192.535 271.823C242.881 254.246 279 206.341 279 150C279 78.7553 221.245 21 150 21C78.7553 21 21 78.7553 21 150C21 205.28 55.7708 252.438 104.635 270.797C106.002 279.406 107.806 287.377 109.813 294.556C46.485 276.989 0 218.923 0 150C0 67.1573 67.1573 0 150 0C232.843 0 300 67.1573 300 150C300 219.697 252.465 278.291 188.047 295.132C190.009 287.569 191.471 279.684 192.535 271.823Z" fill="#AA1CD3"/>
<path fill-rule="evenodd" clip-rule="evenodd" d="M194.273 213.524C214.084 199.38 227 176.198 227 150C227 106.922 192.078 72 149 72C105.922 72 71 106.922 71 150C71 176.078 83.7975 199.167 103.455 213.329C102.418 221.897 101.975 230.244 102.001 238.29C70.4638 221.466 49 188.24 49 150C49 94.7715 93.7715 50 149 50C204.228 50 249 94.7715 249 150C249 188.66 227.062 222.196 194.956 238.838C195.121 229.089 194.805 220.346 194.273 213.524Z" fill="#AA1CD3"/>
<path d="M129 315H168.5C185.3 287.8 185.833 236.333 184 214C158 163.5 123.167 193.333 114 214C108.4 261.2 121.667 301 129 315Z" fill="#AA1CD3"/>
<path fill-rule="evenodd" clip-rule="evenodd" d="M114.488 214.134C108.959 260.892 121.988 300.351 129.303 314.5H168.22C176.464 301.007 180.75 281.55 182.74 262.623C184.735 243.655 184.418 225.289 183.51 214.14C177.05 201.621 170.073 194.133 163.137 190.225C156.199 186.314 149.26 185.962 142.824 187.793C129.935 191.461 119.05 203.902 114.488 214.134ZM163.628 189.353C170.807 193.399 177.917 201.093 184.445 213.771L184.49 213.86L184.498 213.959C185.417 225.153 185.743 243.635 183.735 262.727C181.729 281.805 177.386 301.564 168.925 315.263L168.779 315.5H128.697L128.557 315.232C121.182 301.153 107.89 261.252 113.503 213.941L113.512 213.866L113.543 213.797C118.166 203.375 129.261 190.614 142.551 186.832C149.22 184.934 156.437 185.301 163.628 189.353Z" fill="#AA1CD3"/>
</svg>
