<svg viewBox="0 0 315 315" fill="none" xmlns="http://www.w3.org/2000/svg">
<path d="M315 157.5C315 244.485 244.485 315 157.5 315C70.5152 315 0 244.485 0 157.5C0 70.5152 70.5152 0 157.5 0C244.485 0 315 70.5152 315 157.5Z" fill="#65D36E"/>
<path d="M270.398 118.473C200.15 69.4115 98.031 82.2345 55.7522 94.7788C40.1416 114.85 57.6106 120.796 68.2964 121.261C161.96 97.8451 231.836 125.442 255.066 142.168C271.792 139.938 272.257 125.442 270.398 118.473Z" fill="black"/>
<path d="M248.097 168.65C187.885 126.279 103.142 136.128 68.2964 146.35C50.4557 161.96 65.5088 167.721 75.2655 168.65C162.239 148.58 218.363 174.226 235.553 189.558C251.164 189.558 250.42 175.619 248.097 168.65Z" fill="black"/>
<path d="M228.584 214.646C179.522 177.85 105.929 187.235 75.2655 196.527C61.8849 202.102 69.6903 210.929 75.2655 214.646C146.628 196.805 201.637 218.363 220.221 231.372C231.372 230.257 230.442 219.757 228.584 214.646Z" fill="black"/>
</svg>
